# xmcd CD database file
# Copyright (C) 1993-1998 Ti Kan
# 
# Track frame offsets:
#     200
#     11150
#     31990
# 
# Disc length: 726 seconds
# 
# Revision: 1
# Processed by: cddbd v1.4b41PL1 Copyright (c) Steve Scherf et al.
# Submitted via: DiscPlay 4.0.4
# 
DISCID=1b02d403
DTITLE=Buddy Guy - I Go Crazy (Single)
DYEAR=1900
DGENRE=
TTITLE0=I go Crazy
TTITLE1=Feels Like Rain
TTITLE2=She's a Superstar
EXTD=
EXTT0=
EXTT1=
EXTT2=
PLAYORDER=
